<?xml version="1.0" encoding="UTF-8" standalone="no"?>
<!DOCTYPE svg PUBLIC "-//W3C//DTD SVG 1.1//EN"
 "http://www.w3.org/Graphics/SVG/1.1/DTD/svg11.dtd">
<!-- Generated by graphviz version 2.36.0 (20140111.2315)
 -->
<!-- Title: G Pages: 1 -->
<svg width="722pt" height="1130pt"
 viewBox="0.00 0.00 722.00 1130.00" xmlns="http://www.w3.org/2000/svg" xmlns:xlink="http://www.w3.org/1999/xlink">
<g id="graph0" class="graph" transform="scale(1 1) rotate(0) translate(4 1126)">
<title>G</title>
<polygon fill="white" stroke="none" points="-4,4 -4,-1126 718,-1126 718,4 -4,4"/>
<g id="clust1" class="cluster"><title>cluster_Global</title>
<path fill="none" stroke="gray" d="M158,-8C158,-8 694,-8 694,-8 700,-8 706,-14 706,-20 706,-20 706,-1102 706,-1102 706,-1108 700,-1114 694,-1114 694,-1114 158,-1114 158,-1114 152,-1114 146,-1108 146,-1102 146,-1102 146,-20 146,-20 146,-14 152,-8 158,-8"/>
<text text-anchor="middle" x="426" y="-1101.2" font-family="Times,serif" font-size="11.00" fill="gray">Global</text>
</g>
<g id="clust2" class="cluster"><title>cluster_\DBConnectionWatcher</title>
<path fill="none" stroke="gray" d="M166,-16C166,-16 686,-16 686,-16 692,-16 698,-22 698,-28 698,-28 698,-1074 698,-1074 698,-1080 692,-1086 686,-1086 686,-1086 166,-1086 166,-1086 160,-1086 154,-1080 154,-1074 154,-1074 154,-28 154,-28 154,-22 160,-16 166,-16"/>
<text text-anchor="middle" x="426" y="-1073.2" font-family="Times,serif" font-size="11.00" fill="gray">DBConnectionWatcher</text>
</g>
<g id="clust3" class="cluster"><title>cluster_\DBConnectionWatcher\DB</title>
<path fill="none" stroke="gray" d="M211,-796C211,-796 664,-796 664,-796 670,-796 676,-802 676,-808 676,-808 676,-1046 676,-1046 676,-1052 670,-1058 664,-1058 664,-1058 211,-1058 211,-1058 205,-1058 199,-1052 199,-1046 199,-1046 199,-808 199,-808 199,-802 205,-796 211,-796"/>
<text text-anchor="middle" x="437.5" y="-1045.2" font-family="Times,serif" font-size="11.00" fill="gray">DB</text>
</g>
<g id="clust4" class="cluster"><title>cluster_\DBConnectionWatcher\DB\DBMS</title>
<path fill="none" stroke="gray" d="M507,-958C507,-958 583,-958 583,-958 589,-958 595,-964 595,-970 595,-970 595,-1018 595,-1018 595,-1024 589,-1030 583,-1030 583,-1030 507,-1030 507,-1030 501,-1030 495,-1024 495,-1018 495,-1018 495,-970 495,-970 495,-964 501,-958 507,-958"/>
<text text-anchor="middle" x="545" y="-1017.2" font-family="Times,serif" font-size="11.00" fill="gray">DBMS</text>
</g>
<g id="clust5" class="cluster"><title>cluster_\DBConnectionWatcher\Tracker</title>
<path fill="none" stroke="gray" d="M453,-204C453,-204 637,-204 637,-204 643,-204 649,-210 649,-216 649,-216 649,-318 649,-318 649,-324 643,-330 637,-330 637,-330 453,-330 453,-330 447,-330 441,-324 441,-318 441,-318 441,-216 441,-216 441,-210 447,-204 453,-204"/>
<text text-anchor="middle" x="545" y="-317.2" font-family="Times,serif" font-size="11.00" fill="gray">Tracker</text>
</g>
<g id="clust6" class="cluster"><title>cluster_\DBConnectionWatcher\Mailer</title>
<path fill="none" stroke="gray" d="M483,-70C483,-70 607,-70 607,-70 613,-70 619,-76 619,-82 619,-82 619,-184 619,-184 619,-190 613,-196 607,-196 607,-196 483,-196 483,-196 477,-196 471,-190 471,-184 471,-184 471,-82 471,-82 471,-76 477,-70 483,-70"/>
<text text-anchor="middle" x="545" y="-183.2" font-family="Times,serif" font-size="11.00" fill="gray">Mailer</text>
</g>
<g id="clust7" class="cluster"><title>cluster_\DBConnectionWatcher\Configuration</title>
<path fill="none" stroke="gray" d="M174,-338C174,-338 678,-338 678,-338 684,-338 690,-344 690,-350 690,-350 690,-776 690,-776 690,-782 684,-788 678,-788 678,-788 174,-788 174,-788 168,-788 162,-782 162,-776 162,-776 162,-350 162,-350 162,-344 168,-338 174,-338"/>
<text text-anchor="middle" x="426" y="-775.2" font-family="Times,serif" font-size="11.00" fill="gray">Configuration</text>
</g>
<!-- \\DBConnectionWatcher\\DB\\DBMS\\PostgreSQL -->
<g id="node1" class="node"><title>\\DBConnectionWatcher\\DB\\DBMS\\PostgreSQL</title>
<polygon fill="none" stroke="black" points="587,-1002 503,-1002 503,-966 587,-966 587,-1002"/>
<text text-anchor="middle" x="545" y="-981.2" font-family="Courier,monospace" font-size="11.00">PostgreSQL</text>
</g>
<!-- \\DBConnectionWatcher\\DB\\DBInterface -->
<g id="node5" class="node"><title>\\DBConnectionWatcher\\DB\\DBInterface</title>
<polygon fill="none" stroke="black" points="298.5,-1002 207.5,-1002 207.5,-966 298.5,-966 298.5,-1002"/>
<text text-anchor="middle" x="253" y="-981.2" font-family="Courier,monospace" font-size="11.00">DBInterface</text>
</g>
<!-- \\DBConnectionWatcher\\DB\\DBMS\\PostgreSQL&#45;&gt;\\DBConnectionWatcher\\DB\\DBInterface -->
<g id="edge1" class="edge"><title>\\DBConnectionWatcher\\DB\\DBMS\\PostgreSQL&#45;&gt;\\DBConnectionWatcher\\DB\\DBInterface</title>
<path fill="none" stroke="black" stroke-dasharray="1,5" d="M502.758,-984C451.97,-984 365.517,-984 309.084,-984"/>
<polygon fill="none" stroke="black" points="308.912,-980.5 298.912,-984 308.912,-987.5 308.912,-980.5"/>
</g>
<!-- \\DBConnectionWatcher\\DB\\PreparedStatementCreationException -->
<g id="node2" class="node"><title>\\DBConnectionWatcher\\DB\\PreparedStatementCreationException</title>
<polygon fill="none" stroke="black" points="668,-948 422,-948 422,-912 668,-912 668,-948"/>
<text text-anchor="middle" x="545" y="-927.2" font-family="Courier,monospace" font-size="11.00">PreparedStatementCreationException</text>
</g>
<!-- \\Exception -->
<g id="node20" class="node"><title>\\Exception</title>
<ellipse fill="none" stroke="black" cx="49" cy="-409" rx="48.9926" ry="18"/>
<text text-anchor="middle" x="49" y="-405.3" font-family="Times,serif" font-size="14.00" fill="gray">\Exception</text>
</g>
<!-- \\DBConnectionWatcher\\DB\\PreparedStatementCreationException&#45;&gt;\\Exception -->
<g id="edge2" class="edge"><title>\\DBConnectionWatcher\\DB\\PreparedStatementCreationException&#45;&gt;\\Exception</title>
<path fill="none" stroke="black" d="M421.959,-914.67C416.887,-911.353 412.186,-907.49 408,-903 234.183,-716.548 512.307,-518.099 336,-334 310.428,-307.298 290.687,-324.579 254,-320"/>
</g>
<!-- \\DBConnectionWatcher\\DB\\ConnectionException -->
<g id="node3" class="node"><title>\\DBConnectionWatcher\\DB\\ConnectionException</title>
<polygon fill="none" stroke="black" points="617.5,-894 472.5,-894 472.5,-858 617.5,-858 617.5,-894"/>
<text text-anchor="middle" x="545" y="-873.2" font-family="Courier,monospace" font-size="11.00">ConnectionException</text>
</g>
<!-- \\DBConnectionWatcher\\DB\\ConnectionException&#45;&gt;\\Exception -->
<g id="edge3" class="edge"><title>\\DBConnectionWatcher\\DB\\ConnectionException&#45;&gt;\\Exception</title>
<path fill="none" stroke="black" d="M472.457,-877.636C448.896,-874.448 424.529,-866.5 408,-849 249.307,-680.98 496.937,-499.872 336,-334 310.255,-307.465 290.687,-324.579 254,-320"/>
</g>
<!-- \\DBConnectionWatcher\\DB\\DBFactory -->
<g id="node4" class="node"><title>\\DBConnectionWatcher\\DB\\DBFactory</title>
<polygon fill="none" stroke="black" points="583.5,-840 506.5,-840 506.5,-804 583.5,-804 583.5,-840"/>
<text text-anchor="middle" x="545" y="-819.2" font-family="Courier,monospace" font-size="11.00">DBFactory</text>
</g>
<!-- \\DBConnectionWatcher\\Tracker\\WriteException -->
<g id="node6" class="node"><title>\\DBConnectionWatcher\\Tracker\\WriteException</title>
<polygon fill="none" stroke="black" points="600.5,-302 489.5,-302 489.5,-266 600.5,-266 600.5,-302"/>
<text text-anchor="middle" x="545" y="-281.2" font-family="Courier,monospace" font-size="11.00">WriteException</text>
</g>
<!-- \\DBConnectionWatcher\\Tracker\\WriteException&#45;&gt;\\Exception -->
<g id="edge4" class="edge"><title>\\DBConnectionWatcher\\Tracker\\WriteException&#45;&gt;\\Exception</title>
<path fill="none" stroke="black" d="M489.479,-298.856C431.19,-312.847 336.059,-330.243 254,-320"/>
</g>
<!-- \\DBConnectionWatcher\\Tracker\\ExceededConnectionsTracker -->
<g id="node7" class="node"><title>\\DBConnectionWatcher\\Tracker\\ExceededConnectionsTracker</title>
<polygon fill="none" stroke="black" points="641,-248 449,-248 449,-212 641,-212 641,-248"/>
<text text-anchor="middle" x="545" y="-227.2" font-family="Courier,monospace" font-size="11.00">ExceededConnectionsTracker</text>
</g>
<!-- \\DBConnectionWatcher\\Mailer\\Mailer -->
<g id="node8" class="node"><title>\\DBConnectionWatcher\\Mailer\\Mailer</title>
<polygon fill="none" stroke="black" points="573.5,-168 516.5,-168 516.5,-132 573.5,-132 573.5,-168"/>
<text text-anchor="middle" x="545" y="-147.2" font-family="Courier,monospace" font-size="11.00">Mailer</text>
</g>
<!-- \\DBConnectionWatcher\\Mailer\\MailSendException -->
<g id="node9" class="node"><title>\\DBConnectionWatcher\\Mailer\\MailSendException</title>
<polygon fill="none" stroke="black" points="610.5,-114 479.5,-114 479.5,-78 610.5,-78 610.5,-114"/>
<text text-anchor="middle" x="545" y="-93.2" font-family="Courier,monospace" font-size="11.00">MailSendException</text>
</g>
<!-- \\DBConnectionWatcher\\Mailer\\MailSendException&#45;&gt;\\Exception -->
<g id="edge5" class="edge"><title>\\DBConnectionWatcher\\Mailer\\MailSendException&#45;&gt;\\Exception</title>
<path fill="none" stroke="black" d="M479.304,-99.4281C455.51,-103.03 429.219,-109.943 408,-123 313.351,-181.243 364.278,-333.765 254,-320"/>
<path fill="none" stroke="black" d="M252,-320C204.846,-314.114 189.82,-315.615 146,-334 118.013,-345.742 91.2379,-367.886 73.1096,-385.081"/>
<polygon fill="none" stroke="black" points="70.6191,-382.621 65.8914,-392.103 75.5,-387.639 70.6191,-382.621"/>
</g>
<!-- \\DBConnectionWatcher\\Configuration\\InvalidConfigurationFormatException -->
<g id="node10" class="node"><title>\\DBConnectionWatcher\\Configuration\\InvalidConfigurationFormatException</title>
<polygon fill="none" stroke="black" points="671.5,-598 418.5,-598 418.5,-562 671.5,-562 671.5,-598"/>
<text text-anchor="middle" x="545" y="-577.2" font-family="Courier,monospace" font-size="11.00">InvalidConfigurationFormatException</text>
</g>
<!-- \\DBConnectionWatcher\\Configuration\\ConfigurationException -->
<g id="node16" class="node"><title>\\DBConnectionWatcher\\Configuration\\ConfigurationException</title>
<polygon fill="none" stroke="black" points="335.5,-517 170.5,-517 170.5,-481 335.5,-481 335.5,-517"/>
<text text-anchor="middle" x="253" y="-496.2" font-family="Courier,monospace" font-size="11.00">ConfigurationException</text>
</g>
<!-- \\DBConnectionWatcher\\Configuration\\InvalidConfigurationFormatException&#45;&gt;\\DBConnectionWatcher\\Configuration\\ConfigurationException -->
<g id="edge6" class="edge"><title>\\DBConnectionWatcher\\Configuration\\InvalidConfigurationFormatException&#45;&gt;\\DBConnectionWatcher\\Configuration\\ConfigurationException</title>
<path fill="none" stroke="black" d="M444.458,-561.929C432.119,-559.193 419.727,-556.203 408,-553 374.85,-543.946 338.544,-531.35 309.512,-520.6"/>
<polygon fill="none" stroke="black" points="310.554,-517.253 299.961,-517.033 308.105,-523.811 310.554,-517.253"/>
</g>
<!-- \\DBConnectionWatcher\\Configuration\\InvalidConfigurationValueTypeException -->
<g id="node11" class="node"><title>\\DBConnectionWatcher\\Configuration\\InvalidConfigurationValueTypeException</title>
<polygon fill="none" stroke="black" points="681.5,-544 408.5,-544 408.5,-508 681.5,-508 681.5,-544"/>
<text text-anchor="middle" x="545" y="-523.2" font-family="Courier,monospace" font-size="11.00">InvalidConfigurationValueTypeException</text>
</g>
<!-- \\DBConnectionWatcher\\Configuration\\InvalidConfigurationValueTypeException&#45;&gt;\\DBConnectionWatcher\\Configuration\\ConfigurationException -->
<g id="edge7" class="edge"><title>\\DBConnectionWatcher\\Configuration\\InvalidConfigurationValueTypeException&#45;&gt;\\DBConnectionWatcher\\Configuration\\ConfigurationException</title>
<path fill="none" stroke="black" d="M408.34,-513.37C387.251,-511.406 365.897,-509.418 346.073,-507.572"/>
<polygon fill="none" stroke="black" points="346.136,-504.063 335.855,-506.621 345.487,-511.033 346.136,-504.063"/>
</g>
<!-- \\DBConnectionWatcher\\Configuration\\Reader -->
<g id="node12" class="node"><title>\\DBConnectionWatcher\\Configuration\\Reader</title>
<polygon fill="none" stroke="black" points="573.5,-652 516.5,-652 516.5,-616 573.5,-616 573.5,-652"/>
<text text-anchor="middle" x="545" y="-631.2" font-family="Courier,monospace" font-size="11.00">Reader</text>
</g>
<!-- \\DBConnectionWatcher\\Configuration\\NonAcceptedValueException -->
<g id="node13" class="node"><title>\\DBConnectionWatcher\\Configuration\\NonAcceptedValueException</title>
<polygon fill="none" stroke="black" points="637.5,-490 452.5,-490 452.5,-454 637.5,-454 637.5,-490"/>
<text text-anchor="middle" x="545" y="-469.2" font-family="Courier,monospace" font-size="11.00">NonAcceptedValueException</text>
</g>
<!-- \\DBConnectionWatcher\\Configuration\\NonAcceptedValueException&#45;&gt;\\DBConnectionWatcher\\Configuration\\ConfigurationException -->
<g id="edge8" class="edge"><title>\\DBConnectionWatcher\\Configuration\\NonAcceptedValueException&#45;&gt;\\DBConnectionWatcher\\Configuration\\ConfigurationException</title>
<path fill="none" stroke="black" d="M452.242,-480.543C418.406,-483.693 380.078,-487.262 346.203,-490.416"/>
<polygon fill="none" stroke="black" points="345.475,-486.968 335.843,-491.38 346.124,-493.938 345.475,-486.968"/>
</g>
<!-- \\DBConnectionWatcher\\Configuration\\MissingOrExtraConfigurationsException -->
<g id="node14" class="node"><title>\\DBConnectionWatcher\\Configuration\\MissingOrExtraConfigurationsException</title>
<polygon fill="none" stroke="black" points="678,-436 412,-436 412,-400 678,-400 678,-436"/>
<text text-anchor="middle" x="545" y="-415.2" font-family="Courier,monospace" font-size="11.00">MissingOrExtraConfigurationsException</text>
</g>
<!-- \\DBConnectionWatcher\\Configuration\\MissingOrExtraConfigurationsException&#45;&gt;\\DBConnectionWatcher\\Configuration\\ConfigurationException -->
<g id="edge9" class="edge"><title>\\DBConnectionWatcher\\Configuration\\MissingOrExtraConfigurationsException&#45;&gt;\\DBConnectionWatcher\\Configuration\\ConfigurationException</title>
<path fill="none" stroke="black" d="M444.458,-436.071C432.119,-438.807 419.727,-441.797 408,-445 374.85,-454.054 338.544,-466.65 309.512,-477.4"/>
<polygon fill="none" stroke="black" points="308.105,-474.189 299.961,-480.967 310.554,-480.747 308.105,-474.189"/>
</g>
<!-- \\DBConnectionWatcher\\Configuration\\InvalidConfigurationPropertyException -->
<g id="node15" class="node"><title>\\DBConnectionWatcher\\Configuration\\InvalidConfigurationPropertyException</title>
<polygon fill="none" stroke="black" points="678,-382 412,-382 412,-346 678,-346 678,-382"/>
<text text-anchor="middle" x="545" y="-361.2" font-family="Courier,monospace" font-size="11.00">InvalidConfigurationPropertyException</text>
</g>
<!-- \\DBConnectionWatcher\\Configuration\\InvalidConfigurationPropertyException&#45;&gt;\\DBConnectionWatcher\\Configuration\\ConfigurationException -->
<g id="edge10" class="edge"><title>\\DBConnectionWatcher\\Configuration\\InvalidConfigurationPropertyException&#45;&gt;\\DBConnectionWatcher\\Configuration\\ConfigurationException</title>
<path fill="none" stroke="black" d="M432.968,-382.005C424.386,-384.614 415.969,-387.595 408,-391 359.416,-411.758 310.732,-449.415 281.479,-474.32"/>
<polygon fill="none" stroke="black" points="279.044,-471.798 273.76,-480.981 283.617,-477.097 279.044,-471.798"/>
</g>
<!-- \\DBConnectionWatcher\\Configuration\\ConfigurationException&#45;&gt;\\Exception -->
<g id="edge11" class="edge"><title>\\DBConnectionWatcher\\Configuration\\ConfigurationException&#45;&gt;\\Exception</title>
<path fill="none" stroke="black" d="M211.122,-480.787C175.927,-465.106 125.417,-442.601 90.3695,-426.986"/>
<polygon fill="none" stroke="black" points="91.4788,-423.649 80.92,-422.776 88.6299,-430.043 91.4788,-423.649"/>
</g>
<!-- \\DBConnectionWatcher\\Configuration\\InvalidConfigurationValueException -->
<g id="node17" class="node"><title>\\DBConnectionWatcher\\Configuration\\InvalidConfigurationValueException</title>
<polygon fill="none" stroke="black" points="668,-760 422,-760 422,-724 668,-724 668,-760"/>
<text text-anchor="middle" x="545" y="-739.2" font-family="Courier,monospace" font-size="11.00">InvalidConfigurationValueException</text>
</g>
<!-- \\DBConnectionWatcher\\Configuration\\InvalidConfigurationValueException&#45;&gt;\\DBConnectionWatcher\\Configuration\\ConfigurationException -->
<g id="edge12" class="edge"><title>\\DBConnectionWatcher\\Configuration\\InvalidConfigurationValueException&#45;&gt;\\DBConnectionWatcher\\Configuration\\ConfigurationException</title>
<path fill="none" stroke="black" d="M424.318,-723.853C418.633,-721.267 413.156,-718.332 408,-715 335.052,-667.861 286.009,-572.956 265.237,-526.241"/>
<polygon fill="none" stroke="black" points="268.433,-524.813 261.236,-517.038 262.014,-527.604 268.433,-524.813"/>
</g>
<!-- \\DBConnectionWatcher\\Configuration\\FileNotFoundException -->
<g id="node18" class="node"><title>\\DBConnectionWatcher\\Configuration\\FileNotFoundException</title>
<polygon fill="none" stroke="black" points="624,-706 466,-706 466,-670 624,-670 624,-706"/>
<text text-anchor="middle" x="545" y="-685.2" font-family="Courier,monospace" font-size="11.00">FileNotFoundException</text>
</g>
<!-- \\DBConnectionWatcher\\Configuration\\FileNotFoundException&#45;&gt;\\DBConnectionWatcher\\Configuration\\ConfigurationException -->
<g id="edge13" class="edge"><title>\\DBConnectionWatcher\\Configuration\\FileNotFoundException&#45;&gt;\\DBConnectionWatcher\\Configuration\\ConfigurationException</title>
<path fill="none" stroke="black" d="M465.951,-680.95C446.197,-676.939 425.607,-670.695 408,-661 347.52,-627.697 296.721,-562.434 271.36,-525.722"/>
<polygon fill="none" stroke="black" points="273.981,-523.351 265.47,-517.041 268.188,-527.281 273.981,-523.351"/>
</g>
<!-- \\DBConnectionWatcher\\DBConnectionWatcher -->
<g id="node19" class="node"><title>\\DBConnectionWatcher\\DBConnectionWatcher</title>
<polygon fill="none" stroke="black" points="617.5,-60 472.5,-60 472.5,-24 617.5,-24 617.5,-60"/>
<text text-anchor="middle" x="545" y="-39.2" font-family="Courier,monospace" font-size="11.00">DBConnectionWatcher</text>
</g>
</g>
</svg>
